<svg xmlns="http://www.w3.org/2000/svg" xmlns:xlink="http://www.w3.org/1999/xlink" contentStyleType="text/css" data-diagram-type="DESCRIPTION" height="1240px" preserveAspectRatio="none" style="width:2931px;height:1240px;background:#FFFFFF;" version="1.1" viewBox="0 0 2931 1240" width="2931px" zoomAndPan="magnify"><?plantuml 1.2026.6?><defs/><g><g class="title" data-source-line="1"><text fill="#000000" font-family="Arial" font-size="14" font-weight="700" lengthAdjust="spacing" textLength="437.0215" x="1243.8493" y="22.9951">High School Story - Hexagonal Architecture Framework</text></g><!--cluster PrimaryInfra--><g class="cluster" data-qualified-name="PrimaryInfra" data-source-line="39" id="ent0001"><rect fill="#DFEEDA" height="119" rx="8" ry="8" style="stroke:#2F2A26;stroke-width:1;" width="265" x="7" y="705.4269"/><text fill="#000000" font-family="Arial" font-size="14" font-weight="700" lengthAdjust="spacing" textLength="249.874" x="14.563" y="720.422">Primary / Driving Infrastructure</text></g><!--cluster InboundAdapterArea--><g class="cluster" data-qualified-name="InboundAdapterArea" data-source-line="43" id="ent0003"><rect fill="#EEF5FF" height="119" rx="8" ry="8" style="stroke:#2F2A26;stroke-width:1;" width="357.86" x="300" y="705.4269"/><text fill="#000000" font-family="Arial" font-size="14" font-weight="700" lengthAdjust="spacing" textLength="133.0615" x="412.3992" y="720.422">Inbound Adapter</text></g><!--cluster Core--><g class="cluster" data-qualified-name="Core" data-source-line="47" id="ent0005"><path d="M721.02,726.4269 L948.0025,377.4269 L2309.8975,377.4269 L2536.88,726.4269 L2309.8975,1075.4269 L948.0025,1075.4269 L721.02,726.4269" fill="#FFF8EA" style="stroke:#2F2A26;stroke-width:1;"/><text fill="#000000" font-family="Arial" font-size="14" font-weight="700" lengthAdjust="spacing" textLength="36.292" x="1610.804" y="392.422">Core</text></g><!--cluster InboundPortArea--><g class="cluster" data-qualified-name="Core.InboundPortArea" data-source-line="48" id="ent0006"><rect fill="#FFFFFF" height="125" rx="8" ry="8" style="stroke:#2F2A26;stroke-width:1;" width="284" x="753.02" y="694.4269"/><text fill="#000000" font-family="Arial" font-size="14" font-weight="700" lengthAdjust="spacing" textLength="103.1201" x="843.4599" y="709.422">Inbound Port</text><text fill="#000000" font-family="Arial" font-size="14" font-weight="700" lengthAdjust="spacing" textLength="120.4766" x="834.7817" y="725.7189">Application API</text></g><!--cluster Application--><g class="cluster" data-qualified-name="Core.Application" data-source-line="52" id="ent0008"><rect fill="#FFF3D8" height="442" rx="8" ry="8" style="stroke:#2F2A26;stroke-width:1;" width="1372.7" x="1132.18" y="436.4269"/><text fill="#000000" font-family="Arial" font-size="14" font-weight="700" lengthAdjust="spacing" textLength="89.2979" x="1773.8811" y="451.422">Application</text></g><!--cluster Domain--><g class="cluster" data-qualified-name="Core.Application.Domain" data-source-line="59" id="ent0014"><rect fill="#FFFFFF" height="164" rx="8" ry="8" style="stroke:#2F2A26;stroke-width:1;" width="997.42" x="1475.46" y="585.4269"/><text fill="#000000" font-family="Arial" font-size="14" font-weight="700" lengthAdjust="spacing" textLength="60.04" x="1944.15" y="600.422">Domain</text></g><!--cluster OutboundPortArea--><g class="cluster" data-qualified-name="Core.OutboundPortArea" data-source-line="66" id="ent0018"><rect fill="#FFFFFF" height="141" rx="8" ry="8" style="stroke:#2F2A26;stroke-width:1;" width="288" x="1915.06" y="902.4269"/><text fill="#000000" font-family="Arial" font-size="14" font-weight="700" lengthAdjust="spacing" textLength="116.5049" x="2000.8076" y="917.422">Outbound Port</text></g><!--cluster OutboundAdapterArea--><g class="cluster" data-qualified-name="OutboundAdapterArea" data-source-line="71" id="ent0020"><rect fill="#EEF5FF" height="119" rx="8" ry="8" style="stroke:#2F2A26;stroke-width:1;" width="239.44" x="2240.97" y="1107.4269"/><text fill="#000000" font-family="Arial" font-size="14" font-weight="700" lengthAdjust="spacing" textLength="146.4463" x="2287.4669" y="1122.422">Outbound Adapter</text></g><!--cluster SecondaryInfra--><g class="cluster" data-qualified-name="SecondaryInfra" data-source-line="75" id="ent0022"><rect fill="#F8C995" height="119" rx="8" ry="8" style="stroke:#2F2A26;stroke-width:1;" width="348.84" x="2568.88" y="1107.4269"/><text fill="#000000" font-family="Arial" font-size="14" font-weight="700" lengthAdjust="spacing" textLength="265.4805" x="2610.5598" y="1122.422">Secondary / Driven Infrastructure</text></g><!--cluster PresentationInfra--><g class="cluster" data-qualified-name="PresentationInfra" data-source-line="79" id="ent0024"><rect fill="#F8EFE0" height="155" rx="8" ry="8" style="stroke:#2F2A26;stroke-width:1;" width="766.61" x="1442.36" y="182.4269"/><text fill="#000000" font-family="Arial" font-size="14" font-weight="700" lengthAdjust="spacing" textLength="217.417" x="1716.9565" y="197.422">Presentation Infrastructure</text></g><!--entity DrivingInfraComponent--><g class="entity" data-qualified-name="PrimaryInfra.DrivingInfraComponent" data-source-line="40" id="ent0002"><rect fill="#F8EFE0" height="68.8906" rx="6" ry="6" style="stroke:#2F2A26;stroke-width:0.5;" width="220.9668" x="28.52" y="739.9769"/><text fill="#000000" font-family="Arial" font-size="14" font-style="italic" lengthAdjust="spacing" textLength="198.9668" x="39.52" y="762.972">&#171;Infrastructure Component&#187;</text><text fill="#000000" font-family="Arial" font-size="14" lengthAdjust="spacing" textLength="181.8359" x="41.6391" y="779.2689">Infrastructure Component</text><text fill="#000000" font-family="Arial" font-size="14" lengthAdjust="spacing" textLength="194.7285" x="41.6391" y="795.5657">Godot input / CLI / debug UI</text></g><!--entity InboundAdapter--><g class="entity" data-qualified-name="InboundAdapterArea.InboundAdapter" data-source-line="44" id="ent0004"><rect fill="#F8EFE0" height="68.8906" rx="6" ry="6" style="stroke:#2F2A26;stroke-width:0.5;" width="325.8604" x="316" y="739.9769"/><text fill="#000000" font-family="Arial" font-size="14" font-style="italic" lengthAdjust="spacing" textLength="134.4561" x="411.7021" y="762.972">&#171;Inbound Adapter&#187;</text><text fill="#000000" font-family="Arial" font-size="14" lengthAdjust="spacing" textLength="92.0391" x="326" y="779.2689">InputAdapter</text><text fill="#000000" font-family="Arial" font-size="14" lengthAdjust="spacing" textLength="305.8604" x="326" y="795.5657">translates external intent to Application API</text></g><!--entity InboundPort--><g class="entity" data-qualified-name="Core.InboundPortArea.InboundPort" data-source-line="49" id="ent0007"><ellipse cx="895.02" cy="774.4269" fill="#EEF5FF" rx="8" ry="8" style="stroke:#2F2A26;stroke-width:0.5;"/><text fill="#000000" font-family="Arial" font-size="14" lengthAdjust="spacing" textLength="237.3916" x="776.3242" y="804.422">Application Command / Query API</text><text fill="#000000" font-family="Arial" font-size="14" font-style="italic" lengthAdjust="spacing" textLength="106.9209" x="841.5596" y="754.1251">&#171;Inbound Port&#187;</text></g><!--entity CommandHandler--><g class="entity" data-qualified-name="Core.Application.CommandHandler" data-source-line="53" id="ent0009"><rect fill="#F8EFE0" height="52.5938" rx="6" ry="6" style="stroke:#2F2A26;stroke-width:0.5;" width="170.6611" x="1148.18" y="792.1269"/><text fill="#000000" font-family="Arial" font-size="14" font-style="italic" lengthAdjust="spacing" textLength="148.6611" x="1159.18" y="815.122">&#171;Command Handler&#187;</text><text fill="#000000" font-family="Arial" font-size="14" lengthAdjust="spacing" textLength="131.5303" x="1167.7454" y="831.4189">Command Handler</text></g><!--entity QueryHandler--><g class="entity" data-qualified-name="Core.Application.QueryHandler" data-source-line="54" id="ent0010"><rect fill="#F8EFE0" height="52.5938" rx="6" ry="6" style="stroke:#2F2A26;stroke-width:0.5;" width="141.2529" x="1162.89" y="704.1269"/><text fill="#000000" font-family="Arial" font-size="14" font-style="italic" lengthAdjust="spacing" textLength="119.2529" x="1173.89" y="727.122">&#171;Query Handler&#187;</text><text fill="#000000" font-family="Arial" font-size="14" lengthAdjust="spacing" textLength="102.1221" x="1182.4554" y="743.4189">Query Handler</text></g><!--entity ApplicationService--><g class="entity" data-qualified-name="Core.Application.ApplicationService" data-source-line="55" id="ent0011"><rect fill="#F8EFE0" height="52.5938" rx="6" ry="6" style="stroke:#2F2A26;stroke-width:0.5;" width="173.5459" x="1538.18" y="773.1269"/><text fill="#000000" font-family="Arial" font-size="14" font-style="italic" lengthAdjust="spacing" textLength="151.5459" x="1549.18" y="796.122">&#171;Application Service&#187;</text><text fill="#000000" font-family="Arial" font-size="14" lengthAdjust="spacing" textLength="134.415" x="1557.7454" y="812.4189">Application Service</text></g><!--entity Projection--><g class="entity" data-qualified-name="Core.Application.Projection" data-source-line="56" id="ent0012"><rect fill="#F8EFE0" height="68.8906" rx="6" ry="6" style="stroke:#2F2A26;stroke-width:0.5;" width="185.6895" x="1532.11" y="492.9769"/><text fill="#000000" font-family="Arial" font-size="14" font-style="italic" lengthAdjust="spacing" textLength="99.4219" x="1575.2438" y="515.972">&#171;Read Model&#187;</text><text fill="#000000" font-family="Arial" font-size="14" font-style="italic" lengthAdjust="spacing" textLength="152.2568" x="1548.8263" y="532.2689">&#171;Reactive Projection&#187;</text><text fill="#000000" font-family="Arial" font-size="14" lengthAdjust="spacing" textLength="165.6895" x="1542.11" y="548.5657">Read Model / Projection</text></g><!--entity ProjectionReader--><g class="entity" data-qualified-name="Core.Application.ProjectionReader" data-source-line="57" id="ent0013"><ellipse cx="2059.06" cy="516.4269" fill="#EEF5FF" rx="8" ry="8" style="stroke:#2F2A26;stroke-width:0.5;"/><text fill="#000000" font-family="Arial" font-size="14" lengthAdjust="spacing" textLength="124.0859" x="1983.7109" y="546.422">IProjectionReader</text><text fill="#000000" font-family="Arial" font-size="14" lengthAdjust="spacing" textLength="150.6982" x="1983.7109" y="562.7189">read-only R3 streams</text><text fill="#000000" font-family="Arial" font-size="14" font-style="italic" lengthAdjust="spacing" textLength="168.1367" x="1974.9916" y="496.1251">&#171;Projection Reader API&#187;</text></g><!--entity DomainModel--><g class="entity" data-qualified-name="Core.Application.Domain.DomainModel" data-source-line="60" id="ent0015"><rect fill="#F8EFE0" height="68.8906" rx="6" ry="6" style="stroke:#2F2A26;stroke-width:0.5;" width="250.9727" x="1499.46" y="656.9769"/><text fill="#000000" font-family="Arial" font-size="14" font-style="italic" lengthAdjust="spacing" textLength="117.9404" x="1565.9761" y="679.972">&#171;Domain Model&#187;</text><text fill="#000000" font-family="Arial" font-size="14" lengthAdjust="spacing" textLength="100.8096" x="1509.46" y="696.2689">Domain Model</text><text fill="#000000" font-family="Arial" font-size="14" lengthAdjust="spacing" textLength="230.9727" x="1509.46" y="712.5657">Aggregate / Entity / Value Object</text></g><!--entity DomainService--><g class="entity" data-qualified-name="Core.Application.Domain.DomainService" data-source-line="61" id="ent0016"><rect fill="#F8EFE0" height="52.5938" rx="6" ry="6" style="stroke:#2F2A26;stroke-width:0.5;" width="184.9033" x="1966.61" y="673.1269"/><text fill="#000000" font-family="Arial" font-size="14" font-style="italic" lengthAdjust="spacing" textLength="127.6475" x="1995.2379" y="696.122">&#171;Domain Service&#187;</text><text fill="#000000" font-family="Arial" font-size="14" lengthAdjust="spacing" textLength="164.9033" x="1976.61" y="712.4189">Domain Service / Policy</text></g><!--entity DomainEvent--><g class="entity" data-qualified-name="Core.Application.Domain.DomainEvent" data-source-line="62" id="ent0017"><rect fill="#F8EFE0" height="52.5938" rx="6" ry="6" style="stroke:#2F2A26;stroke-width:0.5;" width="176.3857" x="2272.5" y="673.1269"/><text fill="#000000" font-family="Arial" font-size="14" font-style="italic" lengthAdjust="spacing" textLength="116.0127" x="2302.6865" y="696.122">&#171;Domain Event&#187;</text><text fill="#000000" font-family="Arial" font-size="14" lengthAdjust="spacing" textLength="156.3857" x="2282.5" y="712.4189">Domain Event / Result</text></g><!--entity OutboundPort--><g class="entity" data-qualified-name="Core.OutboundPortArea.OutboundPort" data-source-line="67" id="ent0019"><ellipse cx="2059.06" cy="982.4269" fill="#EEF5FF" rx="8" ry="8" style="stroke:#2F2A26;stroke-width:0.5;"/><text fill="#000000" font-family="Arial" font-size="14" lengthAdjust="spacing" textLength="140.752" x="1938.5356" y="1012.422">ISaveStore / IClock /</text><text fill="#000000" font-family="Arial" font-size="14" lengthAdjust="spacing" textLength="241.0488" x="1938.5356" y="1028.7189">IAudioOutput / IContentRepository</text><text fill="#000000" font-family="Arial" font-size="14" font-style="italic" lengthAdjust="spacing" textLength="119.3008" x="1999.4096" y="962.1251">&#171;Outbound Port&#187;</text></g><!--entity OutboundAdapter--><g class="entity" data-qualified-name="OutboundAdapterArea.OutboundAdapter" data-source-line="72" id="ent0021"><rect fill="#F8EFE0" height="68.8906" rx="6" ry="6" style="stroke:#2F2A26;stroke-width:0.5;" width="207.4346" x="2256.97" y="1141.9769"/><text fill="#000000" font-family="Arial" font-size="14" font-style="italic" lengthAdjust="spacing" textLength="146.8359" x="2287.2693" y="1164.972">&#171;Outbound Adapter&#187;</text><text fill="#000000" font-family="Arial" font-size="14" lengthAdjust="spacing" textLength="104.4189" x="2266.97" y="1181.2689">OutputAdapter</text><text fill="#000000" font-family="Arial" font-size="14" lengthAdjust="spacing" textLength="187.4346" x="2266.97" y="1197.5657">implements outbound port</text></g><!--entity DrivenInfraComponent--><g class="entity" data-qualified-name="SecondaryInfra.DrivenInfraComponent" data-source-line="76" id="ent0023"><rect fill="#F8EFE0" height="68.8906" rx="6" ry="6" style="stroke:#2F2A26;stroke-width:0.5;" width="316.8369" x="2584.88" y="1141.9769"/><text fill="#000000" font-family="Arial" font-size="14" font-style="italic" lengthAdjust="spacing" textLength="198.9668" x="2643.8151" y="1164.972">&#171;Infrastructure Component&#187;</text><text fill="#000000" font-family="Arial" font-size="14" lengthAdjust="spacing" textLength="181.8359" x="2594.88" y="1181.2689">Infrastructure Component</text><text fill="#000000" font-family="Arial" font-size="14" lengthAdjust="spacing" textLength="296.8369" x="2594.88" y="1197.5657">file system / audio / clock / content source</text></g><!--entity Presenter--><g class="entity" data-qualified-name="PresentationInfra.Presenter" data-source-line="80" id="ent0025"><rect fill="#F8EFE0" height="68.8906" rx="6" ry="6" style="stroke:#2F2A26;stroke-width:0.5;" width="317.1787" x="1466.36" y="244.9769"/><text fill="#000000" font-family="Arial" font-size="14" font-style="italic" lengthAdjust="spacing" textLength="84.5811" x="1582.6588" y="267.972">&#171;Presenter&#187;</text><text fill="#000000" font-family="Arial" font-size="14" lengthAdjust="spacing" textLength="67.4502" x="1476.36" y="284.2689">Presenter</text><text fill="#000000" font-family="Arial" font-size="14" lengthAdjust="spacing" textLength="297.1787" x="1476.36" y="300.5657">binds Application projection to Godot view</text></g><!--entity View--><g class="entity" data-qualified-name="PresentationInfra.View" data-source-line="81" id="ent0026"><rect fill="#F8EFE0" height="68.8906" rx="6" ry="6" style="stroke:#2F2A26;stroke-width:0.5;" width="251.8271" x="1933.14" y="244.9769"/><text fill="#000000" font-family="Arial" font-size="14" font-style="italic" lengthAdjust="spacing" textLength="50.6611" x="2033.723" y="267.972">&#171;View&#187;</text><text fill="#000000" font-family="Arial" font-size="14" lengthAdjust="spacing" textLength="33.5303" x="1943.14" y="284.2689">View</text><text fill="#000000" font-family="Arial" font-size="14" lengthAdjust="spacing" textLength="231.8271" x="1943.14" y="300.5657">Godot scene / control / node tree</text></g><g class="entity" data-qualified-name="GMN48" data-source-line="110" id="ent0049"><path d="M701.86,313.2969 L701.86,353.5625 L1088.1803,353.5625 L1088.1803,323.2969 L1078.1803,313.2969 L701.86,313.2969" fill="#FFF8DF" style="stroke:#66594C;stroke-width:0.5;"/><path d="M1078.1803,313.2969 L1078.1803,323.2969 L1088.1803,323.2969 L1078.1803,313.2969" fill="#FFF8DF" style="stroke:#66594C;stroke-width:1;"/><text fill="#000000" font-family="Arial" font-size="13" lengthAdjust="spacing" textLength="291.3638" x="707.86" y="330.3638">Dependencies cross into Core through ports.</text><text fill="#000000" font-family="Arial" font-size="13" lengthAdjust="spacing" textLength="365.3203" x="707.86" y="345.4966">Core contains Application; Application contains Domain.</text></g><g class="entity" data-qualified-name="GMN51" data-source-line="115" id="ent0052"><path d="M1459.37,118.2969 L1459.37,158.5625 L1790.5292,158.5625 L1790.5292,128.2969 L1780.5292,118.2969 L1459.37,118.2969" fill="#FFF8DF" style="stroke:#66594C;stroke-width:0.5;"/><path d="M1780.5292,118.2969 L1780.5292,128.2969 L1790.5292,128.2969 L1780.5292,118.2969" fill="#FFF8DF" style="stroke:#66594C;stroke-width:1;"/><text fill="#000000" font-family="Arial" font-size="13" lengthAdjust="spacing" textLength="299.7109" x="1465.37" y="135.3638">Domain is plain C# canonical gameplay truth.</text><text fill="#000000" font-family="Arial" font-size="13" lengthAdjust="spacing" textLength="310.1592" x="1465.37" y="150.4966">No Godot, no R3, no JSON, no Ports, no logging.</text></g><g class="entity" data-qualified-name="GMN54" data-source-line="120" id="ent0055"><path d="M1378.85,43.2969 L1378.85,83.5625 L1871.0619,83.5625 L1871.0619,53.2969 L1861.0619,43.2969 L1378.85,43.2969" fill="#FFF8DF" style="stroke:#66594C;stroke-width:0.5;"/><path d="M1861.0619,43.2969 L1861.0619,53.2969 L1871.0619,53.2969 L1861.0619,43.2969" fill="#FFF8DF" style="stroke:#66594C;stroke-width:1;"/><text fill="#000000" font-family="Arial" font-size="13" lengthAdjust="spacing" textLength="193.959" x="1384.85" y="60.3638">Presentation is infrastructure.</text><text fill="#000000" font-family="Arial" font-size="13" lengthAdjust="spacing" textLength="471.2119" x="1384.85" y="75.4966">Presenters do not query Domain directly and do not mutate GameState.</text></g><!--link DrivingInfraComponent to InboundAdapter--><g class="link" data-entity-1="ent0002" data-entity-2="ent0004" data-link-type="dependency" data-source-line="84" id="lnk27"><path d="M249.84,774.4269 C270.86,774.4269 288.26,774.4269 310.51,774.4269" fill="none" id="DrivingInfraComponent-to-InboundAdapter" style="stroke:#181818;stroke-width:1;"/><polygon fill="#181818" points="315.51,774.4269,306.51,770.4269,310.51,774.4269,306.51,778.4269,315.51,774.4269" style="stroke:#181818;stroke-width:1;stroke-linejoin:miter;stroke-miterlimit:10;"/></g><!--link InboundAdapter to InboundPort--><g class="link" data-entity-1="ent0004" data-entity-2="ent0007" data-link-type="dependency" data-source-line="85" id="lnk28"><path d="M642.19,774.4269 C741,774.4269 848.96,774.4269 881.09,774.4269" fill="none" id="InboundAdapter-to-InboundPort" style="stroke:#181818;stroke-width:1;"/><polygon fill="#181818" points="886.09,774.4269,877.09,770.4269,881.09,774.4269,877.09,778.4269,886.09,774.4269" style="stroke:#181818;stroke-width:1;stroke-linejoin:miter;stroke-miterlimit:10;"/></g><!--link InboundPort to CommandHandler--><g class="link" data-entity-1="ent0007" data-entity-2="ent0009" data-link-type="dependency" data-source-line="86" id="lnk29"><path d="M895.09,797.7769 C898.57,797.7769 1043.83,797.7769 1142.95,797.7769" fill="none" id="InboundPort-to-CommandHandler" style="stroke:#181818;stroke-width:1;"/><polygon fill="#181818" points="1147.95,797.7769,1138.95,793.7769,1142.95,797.7769,1138.95,801.7769,1147.95,797.7769" style="stroke:#181818;stroke-width:1;stroke-linejoin:miter;stroke-miterlimit:10;"/></g><!--link InboundPort to QueryHandler--><g class="link" data-entity-1="ent0007" data-entity-2="ent0010" data-link-type="dependency" data-source-line="87" id="lnk30"><path d="M895.09,751.0769 C898.75,751.0769 1059.57,751.0769 1157.71,751.0769" fill="none" id="InboundPort-to-QueryHandler" style="stroke:#181818;stroke-width:1;"/><polygon fill="#181818" points="1162.71,751.0769,1153.71,747.0769,1157.71,751.0769,1153.71,755.0769,1162.71,751.0769" style="stroke:#181818;stroke-width:1;stroke-linejoin:miter;stroke-miterlimit:10;"/></g><!--link CommandHandler to ApplicationService--><g class="link" data-entity-1="ent0009" data-entity-2="ent0011" data-link-type="dependency" data-source-line="89" id="lnk31"><path d="M1318.93,808.9269 C1383.72,808.9269 1467.45,808.9269 1532.68,808.9269" fill="none" id="CommandHandler-to-ApplicationService" style="stroke:#181818;stroke-width:1;"/><polygon fill="#181818" points="1537.68,808.9269,1528.68,804.9269,1532.68,808.9269,1528.68,812.9269,1537.68,808.9269" style="stroke:#181818;stroke-width:1;stroke-linejoin:miter;stroke-miterlimit:10;"/></g><!--link QueryHandler to ApplicationService--><g class="link" data-entity-1="ent0010" data-entity-2="ent0011" data-link-type="dependency" data-source-line="90" id="lnk32"><path d="M1233.72,757.1369 C1233.72,769.9869 1233.72,782.6269 1233.72,782.6269 C1233.72,782.6269 1417.86,782.6269 1533.12,782.6269" fill="none" id="QueryHandler-to-ApplicationService" style="stroke:#181818;stroke-width:1;"/><polygon fill="#181818" points="1538.12,782.6269,1529.12,778.6269,1533.12,782.6269,1529.12,786.6269,1538.12,782.6269" style="stroke:#181818;stroke-width:1;stroke-linejoin:miter;stroke-miterlimit:10;"/></g><!--link ApplicationService to DomainModel--><g class="link" data-entity-1="ent0011" data-entity-2="ent0015" data-link-type="dependency" data-source-line="91" id="lnk33"><path d="M1624.72,772.7269 C1624.72,758.6169 1624.72,746.1169 1624.72,730.9769" fill="none" id="ApplicationService-to-DomainModel" style="stroke:#181818;stroke-width:1;"/><polygon fill="#181818" points="1624.72,725.9769,1620.72,734.9769,1624.72,730.9769,1628.72,734.9769,1624.72,725.9769" style="stroke:#181818;stroke-width:1;stroke-linejoin:miter;stroke-miterlimit:10;"/><text fill="#000000" font-family="Arial" font-size="13" lengthAdjust="spacing" textLength="128.2354" x="1495.72" y="762.4238">aggregate methods</text></g><!--link ApplicationService to DomainService--><g class="link" data-entity-1="ent0011" data-entity-2="ent0016" data-link-type="dependency" data-source-line="92" id="lnk34"><path d="M1712.21,790.6569 C1838.88,790.6569 2058.72,790.6569 2058.72,790.6569 C2058.72,790.6569 2058.72,757.7569 2058.72,730.8169" fill="none" id="ApplicationService-to-DomainService" style="stroke:#181818;stroke-width:1;"/><polygon fill="#181818" points="2058.72,725.8169,2054.72,734.8169,2058.72,730.8169,2062.72,734.8169,2058.72,725.8169" style="stroke:#181818;stroke-width:1;stroke-linejoin:miter;stroke-miterlimit:10;"/><text fill="#000000" font-family="Arial" font-size="13" lengthAdjust="spacing" textLength="203.5122" x="1713.89" y="803.7238">policies / cross-aggregate rules</text></g><!--link DomainModel to DomainService--><g class="link" data-entity-1="ent0015" data-entity-2="ent0016" data-link-type="dependency" data-source-line="93" id="lnk35"><path d="M1750.8,699.4269 C1819.66,699.4269 1898.47,699.4269 1961.32,699.4269" fill="none" id="DomainModel-to-DomainService" style="stroke:#181818;stroke-width:1;"/><polygon fill="#181818" points="1966.32,699.4269,1957.32,695.4269,1961.32,699.4269,1957.32,703.4269,1966.32,699.4269" style="stroke:#181818;stroke-width:1;stroke-linejoin:miter;stroke-miterlimit:10;"/></g><!--link DomainModel to DomainEvent--><g class="link" data-entity-1="ent0015" data-entity-2="ent0017" data-link-type="dependency" data-source-line="94" id="lnk36"><path d="M1750.6,665.0569 C1960.74,665.0569 2360.72,665.0569 2360.72,665.0569 C2360.72,665.0569 2360.72,663.2469 2360.72,667.6869" fill="none" id="DomainModel-to-DomainEvent" style="stroke:#181818;stroke-width:1;"/><polygon fill="#181818" points="2360.72,672.6869,2364.72,663.6869,2360.72,667.6869,2356.72,663.6869,2360.72,672.6869" style="stroke:#181818;stroke-width:1;stroke-linejoin:miter;stroke-miterlimit:10;"/><text fill="#000000" font-family="Arial" font-size="13" lengthAdjust="spacing" textLength="59.96" x="1999.47" y="661.1238">produces</text></g><!--link DomainService to DomainEvent--><g class="link" data-entity-1="ent0016" data-entity-2="ent0017" data-link-type="dependency" data-source-line="95" id="lnk37"><path d="M2151.61,699.4269 C2189.96,699.4269 2229.27,699.4269 2267.19,699.4269" fill="none" id="DomainService-to-DomainEvent" style="stroke:#181818;stroke-width:1;"/><polygon fill="#181818" points="2272.19,699.4269,2263.19,695.4269,2267.19,699.4269,2263.19,703.4269,2272.19,699.4269" style="stroke:#181818;stroke-width:1;stroke-linejoin:miter;stroke-miterlimit:10;"/><text fill="#000000" font-family="Arial" font-size="13" lengthAdjust="spacing" textLength="59.96" x="2212.9" y="712.4938">produces</text></g><!--link DomainEvent to CommandHandler--><g class="link" data-entity-1="ent0017" data-entity-2="ent0009" data-link-type="dependency" data-source-line="96" id="lnk38"><path d="M2360.72,725.9469 C2360.72,764.6569 2360.72,832.0569 2360.72,832.0569 C2360.72,832.0569 1587.21,832.0569 1324.16,832.0569" fill="none" id="DomainEvent-to-CommandHandler" style="stroke:#181818;stroke-width:1;"/><polygon fill="#181818" points="1319.16,832.0569,1328.16,836.0569,1324.16,832.0569,1328.16,828.0569,1319.16,832.0569" style="stroke:#181818;stroke-width:1;stroke-linejoin:miter;stroke-miterlimit:10;"/><text fill="#000000" font-family="Arial" font-size="13" lengthAdjust="spacing" textLength="150.4648" x="1742" y="845.1238">returned to Application</text></g><!--link CommandHandler to OutboundPort--><g class="link" data-entity-1="ent0009" data-entity-2="ent0019" data-link-type="dependency" data-source-line="98" id="lnk39"><path d="M1319.18,838.3869 C1508.07,838.3869 1943.72,838.3869 1943.72,838.3869 C1943.72,838.3869 1943.72,972.9569 1943.72,977.3269" fill="none" id="CommandHandler-to-OutboundPort" style="stroke:#181818;stroke-width:1;"/><polygon fill="#181818" points="1943.72,982.3269,1947.72,973.3269,1943.72,977.3269,1939.72,973.3269,1943.72,982.3269" style="stroke:#181818;stroke-width:1;stroke-linejoin:miter;stroke-miterlimit:10;"/></g><!--link ApplicationService to OutboundPort--><g class="link" data-entity-1="ent0011" data-entity-2="ent0019" data-link-type="dependency" data-source-line="99" id="lnk40"><path d="M1712.02,808.1969 C1809.73,808.1969 1954.72,808.1969 1954.72,808.1969 C1954.72,808.1969 1954.72,972.0269 1954.72,977.2969" fill="none" id="ApplicationService-to-OutboundPort" style="stroke:#181818;stroke-width:1;"/><polygon fill="#181818" points="1954.72,982.2969,1958.72,973.2969,1954.72,977.2969,1950.72,973.2969,1954.72,982.2969" style="stroke:#181818;stroke-width:1;stroke-linejoin:miter;stroke-miterlimit:10;"/></g><!--reverse link OutboundPort to OutboundAdapter--><g class="link" data-entity-1="ent0019" data-entity-2="ent0021" data-link-type="extension" data-source-line="100" id="lnk41"><path d="M2085.89,982.4269 C2125.26,982.4269 2264.72,982.4269 2264.72,982.4269 C2264.72,982.4269 2264.72,1085.9469 2264.72,1141.7469" fill="none" id="OutboundPort-backto-OutboundAdapter" style="stroke:#181818;stroke-width:1;stroke-dasharray:7,7;"/><polygon fill="none" points="2067.89,982.4269,2085.89,988.4269,2085.89,976.4269,2067.89,982.4269" style="stroke:#181818;stroke-width:1;stroke-linejoin:miter;stroke-miterlimit:10;"/></g><!--link OutboundAdapter to DrivenInfraComponent--><g class="link" data-entity-1="ent0021" data-entity-2="ent0023" data-link-type="dependency" data-source-line="101" id="lnk42"><path d="M2464.73,1176.4269 C2501.69,1176.4269 2539.17,1176.4269 2579.65,1176.4269" fill="none" id="OutboundAdapter-to-DrivenInfraComponent" style="stroke:#181818;stroke-width:1;"/><polygon fill="#181818" points="2584.65,1176.4269,2575.65,1172.4269,2579.65,1176.4269,2575.65,1180.4269,2584.65,1176.4269" style="stroke:#181818;stroke-width:1;stroke-linejoin:miter;stroke-miterlimit:10;"/></g><!--link CommandHandler to Projection--><g class="link" data-entity-1="ent0009" data-entity-2="ent0012" data-link-type="dependency" data-source-line="103" id="lnk43"><path d="M1311.72,791.8769 C1311.72,722.1069 1311.72,538.9069 1311.72,538.9069 C1311.72,538.9069 1434.49,538.9069 1526.82,538.9069" fill="none" id="CommandHandler-to-Projection" style="stroke:#181818;stroke-width:1;"/><polygon fill="#181818" points="1531.82,538.9069,1522.82,534.9069,1526.82,538.9069,1522.82,542.9069,1531.82,538.9069" style="stroke:#181818;stroke-width:1;stroke-linejoin:miter;stroke-miterlimit:10;"/></g><!--link QueryHandler to Projection--><g class="link" data-entity-1="ent0010" data-entity-2="ent0012" data-link-type="dependency" data-source-line="104" id="lnk44"><path d="M1233.72,703.6969 C1233.72,646.1969 1233.72,515.9469 1233.72,515.9469 C1233.72,515.9469 1411.02,515.9469 1526.74,515.9469" fill="none" id="QueryHandler-to-Projection" style="stroke:#181818;stroke-width:1;"/><polygon fill="#181818" points="1531.74,515.9469,1522.74,511.9469,1526.74,515.9469,1522.74,519.9469,1531.74,515.9469" style="stroke:#181818;stroke-width:1;stroke-linejoin:miter;stroke-miterlimit:10;"/></g><!--link Projection to ProjectionReader--><g class="link" data-entity-1="ent0012" data-entity-2="ent0013" data-link-type="dependency" data-source-line="105" id="lnk45"><path d="M1718.08,527.2069 C1843.64,527.2069 2047.41,527.2069 2053.9,527.2069" fill="none" id="Projection-to-ProjectionReader" style="stroke:#181818;stroke-width:1;"/><polygon fill="#181818" points="2058.9,527.2069,2049.9,523.2069,2053.9,527.2069,2049.9,531.2069,2058.9,527.2069" style="stroke:#181818;stroke-width:1;stroke-linejoin:miter;stroke-miterlimit:10;"/><text fill="#000000" font-family="Arial" font-size="13" lengthAdjust="spacing" textLength="53.4409" x="1834.49" y="540.2738">exposes</text></g><!--link Presenter to ProjectionReader--><g class="link" data-entity-1="ent0025" data-entity-2="ent0013" data-link-type="dependency" data-source-line="106" id="lnk46"><path d="M1766.72,314.2869 C1766.72,372.2669 1766.72,482.2069 1766.72,482.2069 C1766.72,482.2069 2049.51,482.2069 2054,482.2069" fill="none" id="Presenter-to-ProjectionReader" style="stroke:#181818;stroke-width:1;"/><polygon fill="#181818" points="2059,482.2069,2050,478.2069,2054,482.2069,2050,486.2069,2059,482.2069" style="stroke:#181818;stroke-width:1;stroke-linejoin:miter;stroke-miterlimit:10;"/><text fill="#000000" font-family="Arial" font-size="13" lengthAdjust="spacing" textLength="69.1641" x="1758.9" y="495.2738">subscribes</text></g><!--link Presenter to View--><g class="link" data-entity-1="ent0025" data-entity-2="ent0026" data-link-type="dependency" data-source-line="107" id="lnk47"><path d="M1783.82,279.4269 C1832.85,279.4269 1881.15,279.4269 1927.67,279.4269" fill="none" id="Presenter-to-View" style="stroke:#181818;stroke-width:1;"/><polygon fill="#181818" points="1932.67,279.4269,1923.67,275.4269,1927.67,279.4269,1923.67,283.4269,1932.67,279.4269" style="stroke:#181818;stroke-width:1;stroke-linejoin:miter;stroke-miterlimit:10;"/></g><!--link Core to GMN48--><g class="link" data-entity-1="ent0005" data-entity-2="ent0049" data-link-type="association" data-source-line="110" id="lnk50"><path d="M894.72,377.4157 C894.72,377.337 894.72,377.2583 894.72,377.1795 C894.72,377.022 894.72,376.8642 894.72,376.7062 C894.72,374.1781 894.72,371.5947 894.72,369.0106 C894.72,363.8425 894.72,358.6719 894.72,353.9369" fill="none" id="Core-GMN48" style="stroke:#181818;stroke-width:1;stroke-dasharray:7,7;"/></g><!--link Domain to GMN51--><g class="link" data-entity-1="ent0014" data-entity-2="ent0052" data-link-type="association" data-source-line="115" id="lnk53"><path d="M1830.72,584.1955 C1830.72,583.2593 1830.72,582.3028 1830.72,581.3264 C1830.72,577.4208 1830.72,573.1969 1830.72,568.6837 C1830.72,559.6573 1830.72,549.4738 1830.72,538.3644 C1830.72,493.9269 1830.72,434.6769 1830.72,375.4269 C1830.72,256.9269 1830.72,138.4269 1830.72,138.4269 C1830.72,138.4269 1814.21,138.4269 1790.56,138.4269" fill="none" id="Domain-GMN51" style="stroke:#181818;stroke-width:1;stroke-dasharray:7,7;"/></g><!--link PresentationInfra to GMN54--><g class="link" data-entity-1="ent0024" data-entity-2="ent0055" data-link-type="association" data-source-line="120" id="lnk56"><path d="M1441.8016,209.4269 C1441.5444,209.4269 1441.2888,209.4269 1441.0351,209.4269 C1440.5275,209.4269 1440.027,209.4269 1439.5336,209.4269 C1438.5468,209.4269 1437.5887,209.4269 1436.6606,209.4269 C1432.9485,209.4269 1429.7177,209.4269 1427.0598,209.4269 C1421.7441,209.4269 1418.72,209.4269 1418.72,209.4269 C1418.72,209.4269 1418.72,124.2769 1418.72,84.0369" fill="none" id="PresentationInfra-GMN54" style="stroke:#181818;stroke-width:1;stroke-dasharray:7,7;"/></g><?plantuml-src dLTBKoCt4BxFh-Y2Qu24pL90AAeSixiubG31bJrnaKSzOuMnD94qPbt9_lUq7lPe7YPBEE2PLklhXxg_rbXXAuHRKIvXdY-Lgc1kbTx04TpY5rOgoIgOw7mfBEQsqGWVDLlXYzBFMMQUXQmPlODPCgvUX2oXO9N1PAKI4kscHb3QBbMomB5WJMK_Acdl296C25ObwxbQrKgYj7Ex8GyrcMUoh5BickNFhCI-GgAn4yBV6S3FIdFKKrKf3OUdnIaxFNDIGYcrQYIFAqLHd2EZbSSWr18r_72MVSs6jj-8oukpFkvv5tSNzfkGpx70x_l8frra8ItgWkLlyXcnU5yKNI2fx0Z6sTdxYn_pVVda7gF2me9LeAdSB73XZaSecMNjEHqyQB5YL80dSAF5sfNKJ1QQ6QiRNu07m0n49Ry2Xxn0vCoxrARleBiDfjkL9_b9SMKf7tLZoSpqrndzvxXeIlXZvk6ZPO-msmTNL_iWhwzTT4aGCxbm2O09PpLbtOD6MHHDDB9jUeUUasTHxqbQpQIfc4K3-8KahYFTMKgVoabTLo9dBeqmUPYDMF9-Tzm9xYv3VyC1rKl8gdlObh_tQIIY1-hZ9_cALQSGWYlydmU2fFeEqisKmXKZs1FulK4wzH6mn7_tIiu3aFiTxn98lpqruVnuny-Z7qcQjxPlwLyL3odAeeXCzvIyzGvAy3l5y98MeQCmt9-wEaUz5ZdsGuXYmXfH7Y8-8kFmc-9OKLeVjFepT5bidEqheRMArzVXbLRMc2X5yEJmPksYs-uAb0wR7obPRU3n7L1t85kPdh6WIZOI-r569qvMl9daG6_KYedWSdZibLCduAZX8w7QB4kD9VKBHVz1Mc4TbtncLODmlt364zIGfQkh5276F6PXUn2KLaNdi4cGsZFgwhw2zc7jtaue4OO6OO8L5dP8_ZNYV1qf_ll6jktXORQI_-x5sPojqKry5zHiMgdy6KwUv6pISA489b3aRAeyuJnYhOnmzuE16NAtuqTiqoujxZHINjmAlu4OWqCxPXIhki8LhHXGM-IwduEM1VlM1wmznrn9tWuVb6EpPwSLfqzndbzSlF_swLC8icKsnkAAx32NQFhDG-e98b2xKOsEJ11S-V_3w46Z8NbWZT5XsgxlOd8NYdvCKT6bVY4axz9itNOsZQKmOjS2Nr8JaGBYio-H1FupQM-7iybHOao7Lex89FKc4Ba4dvqkORcV4E_uo3uwkkvDmwmt71CDLxPPEdZSMdSW39PJhi-otlHm2aCQpphpOO_E2FixpPIrBe7jc6w5TBdcvlLjMyabDGbf2RfGK8ArCkQeHT9DXIPBxGm0zgm6rhfqXS2RV0Soz6EFOX0FSqwQ6gbO9VBUXMSquIafxSj7HwVBOlyS7_Uf8-jJYGzbf2b7_Madtl3WaxLaC7PNufYyfCiVaIzbg-sbFOgcMPXSYyL0rtLBbldh-q9PgrQW2d_fepwymHebH-dBmXU56nCgt0djakxpz8NeoDKSaxQNkjwaS-lGm4yTJjXfX1C-piY4_tmOU14Kd1zXvWa3TUKUfeUGCwaaGLPGqeSYYJV40urTEaVk8jLyHx1q_V0_lyplx_o3Er7ZdofLbiGEhpWm8442xn2dS0b9kVEurK1jW2i737_vsrwC8dpXqCN8tI2Zmggnhiy-KIXpzvJuz2y0?></g></svg>